<svg width="82" height="48" viewBox="0 0 82 48" fill="none" xmlns="http://www.w3.org/2000/svg">
<g clip-path="url(#clip0_17_2)">
<path d="M14.105 26.9669C19.3672 24.8717 25.0197 22.2443 29.2253 19.9386C39.4987 14.3062 46.1462 9.96476 50.1455 6.2756C52.6406 3.97388 53.6502 2.30121 53.1463 1.30422C52.6259 0.275163 50.6207 0.135632 47.0153 0.878152C40.2522 2.27099 29.3277 8.07369 18.9496 20.1826C17.1059 22.3337 15.3556 24.5147 13.7186 26.6582C9.50351 28.3225 6.31566 29.3251 5.74509 29.1762C5.78677 29.0317 6.14673 28.4243 9.04222 26.5732C10.7358 25.4906 12.459 24.5187 12.4762 24.5089L12.2662 24.13C11.5907 24.5103 5.65699 27.881 5.32877 29.0712C5.28549 29.2282 5.3225 29.3424 5.3612 29.4107C5.48936 29.6369 5.82432 29.8181 8.19054 29.101C9.51544 28.6993 11.2405 28.0866 13.219 27.3159C6.78283 35.8324 2.18359 43.6415 0.700317 46.4578L1.08069 46.6613C2.59195 43.7919 7.34857 35.7224 13.9919 27.0117C14.0295 26.9969 14.0673 26.9818 14.105 26.9669ZM19.2755 20.4664C29.5829 8.4401 40.4079 2.68211 47.1015 1.30353C48.7162 0.970967 49.8777 0.84778 50.7126 0.84778C52.1437 0.84778 52.6152 1.21002 52.7625 1.50134C52.9906 1.95254 52.9161 3.13115 49.8546 5.95537C45.8819 9.6201 39.2614 13.9422 29.0196 19.5571C24.3345 22.1257 18.9318 24.5646 14.5027 26.3457C16.0063 24.3953 17.6026 22.4183 19.2755 20.4664Z" fill="#9A9A9A"/>
<path d="M60.3208 33.0015C51.1318 37.7172 42.2436 43.7516 38.8188 46.1486C40.7345 43.8578 44.058 39.4588 43.0164 37.6278C41.7754 35.4452 37.0753 36.2521 34.7928 36.7949C38.0764 34.5422 37.9461 34.2276 37.8805 34.0691C37.7142 33.6663 37.1638 33.5117 36.0962 33.5689C34.5988 33.6483 32.0826 34.1586 28.6177 35.0856C25.3657 35.9556 22.314 37.1512 19.8618 38.1121C17.7879 38.9247 15.9751 39.635 14.6599 39.9088C15.6796 39.4989 16.7066 38.7331 17.3623 38.2442L17.5507 38.104C18.0754 37.7166 18.6024 37.333 19.1292 36.9494C20.228 36.1494 21.3643 35.3221 22.4601 34.4725C23.7258 33.4914 25.072 32.4291 26.3417 31.3104C26.3681 31.2871 26.4189 31.2458 26.4863 31.1909C27.7465 30.1634 28.1279 29.6752 27.944 29.3249C27.9139 29.2677 27.8523 29.1918 27.7295 29.1553C27.2833 29.0228 25.9959 29.5537 23.137 31.0971C22.7762 31.1619 19.7295 31.796 15.572 35.3461C14.8629 35.9516 14.1542 36.4135 13.5288 36.8211C12.5311 37.4716 11.8103 37.9415 11.7287 38.5899C11.6866 38.9244 11.8248 39.2665 12.1509 39.6349C12.2111 39.8083 12.3205 39.965 12.4766 40.0991C13.5743 41.0413 16.1376 40.0373 20.0178 38.5168C22.5872 37.51 25.4995 36.3689 28.7282 35.5052C35.9392 33.5762 37.229 33.9416 37.4493 34.1842C37.1752 34.5769 35.2664 35.9705 33.4878 37.1529C33.3986 37.2121 33.366 37.3285 33.4114 37.4261C33.4566 37.5239 33.5665 37.5732 33.6686 37.5419C33.7436 37.5191 41.1895 35.2888 42.6429 37.8436C43.6591 39.6306 39.137 45.2223 37.3087 47.2261C37.2339 47.3081 37.2329 47.4339 37.3063 47.5172C37.3486 47.5653 37.4077 47.5901 37.4673 47.5901C37.5112 47.5901 37.5554 47.5767 37.5934 47.549C37.7048 47.4679 48.8685 39.366 60.5162 33.3885C72.1178 27.4345 81.182 27.9394 81.2722 27.9442L81.2997 27.511C81.2083 27.5046 72.0357 26.9894 60.3208 33.0015ZM12.1776 38.8703C12.154 38.7912 12.1469 38.7161 12.1559 38.6444C12.1919 38.3586 12.4835 38.0737 12.9148 37.7581C12.5411 38.1688 12.2952 38.5396 12.1776 38.8703ZM12.5364 39.4145C12.5264 39.3594 12.5244 39.3009 12.5304 39.2389C12.5946 38.5749 13.6602 36.9192 20.0758 33.2917C21.9074 32.2559 26.6717 29.562 27.5331 29.562C27.5341 29.562 27.5351 29.562 27.5361 29.5621C27.4716 29.7029 27.2061 30.0456 26.2154 30.8532C26.1421 30.913 26.087 30.9581 26.0582 30.9835C24.7975 32.0942 23.4576 33.1514 22.1975 34.1284C21.1069 34.9739 19.9733 35.7992 18.877 36.5974C18.3494 36.9816 17.8216 37.3658 17.2962 37.7537L17.1061 37.8951C16.0577 38.6768 13.6186 40.4955 12.5364 39.4145Z" fill="#9A9A9A"/>
<path d="M32.1439 31.5945L32.2499 32.0154C32.3498 31.9898 38.9445 30.3259 49.2936 29.0465C47.1296 31.6102 45.605 33.6035 45.5699 33.6495L45.9116 33.9141C45.9481 33.8661 47.6101 31.6929 49.9241 28.9697C55.2951 28.3236 61.633 27.7885 68.5741 27.6358L68.5646 27.2017C61.809 27.3503 55.6226 27.8605 50.3396 28.4832C53.109 25.2554 56.6784 21.4125 59.5302 19.4112L59.2843 19.0549C56.2936 21.1535 52.5337 25.2417 49.7072 28.5588C39.0593 29.8492 32.2455 31.5685 32.1439 31.5945Z" fill="#9A9A9A"/>
</g>
<defs>
<clipPath id="clip0_17_2">
<rect width="82" height="48" fill="white"/>
</clipPath>
</defs>
</svg>
